# xmcd
#
# Track frame offsets: 
#        182
#        34027
#        68820
#        97667
#        126905
#        167092
#        198587
#        226832
#        254552
#
# Disc length: 3757 seconds
#
# Revision: 1
# Processed by: cddbd v1.5.1PL0 Copyright (c) Steve Scherf et al.
# Submitted via: ExactAudioCopy v0.95a5
#
DISCID=730eab09
DTITLE=Prince - Explosion (ultra rare mix no 2)
DYEAR=1900
DGENRE=Blues
TTITLE0=Girls and Boys
TTITLE1=The Future
TTITLE2=Making it Easy
TTITLE3=Black Motherfucker
TTITLE4=Get off
TTITLE5=Booty
TTITLE6=I Need You
TTITLE7=This Groove
TTITLE8=Deuce and Aquarter
EXTD=
EXTT0=
EXTT1=
EXTT2=
EXTT3=
EXTT4=
EXTT5=
EXTT6=
EXTT7=
EXTT8=
PLAYORDER=
